HIERARCHY
ROOT RootJoint
{
    OFFSET   0.000000   0.000000   0.000000
    CHANNELS 6 Xposition Yposition Zposition Xrotation Yrotation Zrotation
    JOINT pelvis_lowerback
    {
        OFFSET   0.000000   0.093605   0.000000
        CHANNELS 3 Xrotation Yrotation Zrotation
        JOINT lowerback_torso
        {
            OFFSET   0.000000   0.100000   0.000000
            CHANNELS 3 Xrotation Yrotation Zrotation
            JOINT torso_head
            {
                OFFSET   0.000000   0.282350   0.000000
                CHANNELS 3 Xrotation Yrotation Zrotation
                End Site
                {
                    OFFSET   0.000000   0.192650   0.000000
                }
            }
            JOINT rTorso_Clavicle
            {
                OFFSET  -0.001000   0.157500   0.000000
                CHANNELS 3 Xrotation Yrotation Zrotation
                JOINT rShoulder
                {
                    OFFSET  -0.117647   0.000000   0.000000
                    CHANNELS 3 Xrotation Yrotation Zrotation
                    JOINT rElbow
                    {
                        OFFSET  -0.245000   0.000000   0.000000
                        CHANNELS 3 Xrotation Yrotation Zrotation
                        JOINT rWrist
                        {
                            OFFSET  -0.240000   0.000000   0.000000
                            CHANNELS 3 Xrotation Yrotation Zrotation
                            End Site
                            {
                                OFFSET  -0.116353  -0.002500   0.000000
                            }
                        }
                    }
                }
            }
            JOINT lTorso_Clavicle
            {
                OFFSET   0.001000   0.157500   0.000000
                CHANNELS 3 Xrotation Yrotation Zrotation
                JOINT lShoulder
                {
                    OFFSET   0.117647   0.000000   0.000000
                    CHANNELS 3 Xrotation Yrotation Zrotation
                    JOINT lElbow
                    {
                        OFFSET   0.245000   0.000000   0.000000
                        CHANNELS 3 Xrotation Yrotation Zrotation
                        JOINT lWrist
                        {
                            OFFSET   0.240000   0.000000   0.000000
                            CHANNELS 3 Xrotation Yrotation Zrotation
                            End Site
                            {
                                OFFSET   0.116353  -0.002500   0.000000
                            }
                        }
                    }
                }
            }
        }
    }
    JOINT rHip
    {
        OFFSET  -0.100000  -0.051395   0.000000
        CHANNELS 3 Xrotation Yrotation Zrotation
        JOINT rKnee
        {
            OFFSET   0.000000  -0.410000   0.000000
            CHANNELS 3 Xrotation Yrotation Zrotation
            JOINT rAnkle
            {
                OFFSET   0.000000  -0.390000   0.000000
                CHANNELS 3 Xrotation Yrotation Zrotation
                JOINT rToeJoint
                {
                    OFFSET   0.000000  -0.050000   0.130000
                    CHANNELS 3 Xrotation Yrotation Zrotation
                    End Site
                    {
                        OFFSET  -0.010000   0.002000   0.060000
                    }
                }
            }
        }
    }
    JOINT lHip
    {
        OFFSET   0.100000  -0.051395   0.000000
        CHANNELS 3 Xrotation Yrotation Zrotation
        JOINT lKnee
        {
            OFFSET   0.000000  -0.410000   0.000000
            CHANNELS 3 Xrotation Yrotation Zrotation
            JOINT lAnkle
            {
                OFFSET   0.000000  -0.390000   0.000000
                CHANNELS 3 Xrotation Yrotation Zrotation
                JOINT lToeJoint
                {
                    OFFSET   0.000000  -0.050000   0.130000
                    CHANNELS 3 Xrotation Yrotation Zrotation
                    End Site
                    {
                        OFFSET   0.010000   0.002000   0.060000
                    }
                }
            }
        }
    }
}
MOTION
Frames: 8
Frame Time:   0.008333
 -2.826836   0.914708   4.964220 -15.578541 -54.572169  -4.733235   7.362392  -2.964414   1.005777   1.844262  -6.344621   2.556137   4.077074 -10.207775   4.415479   5.007550  -3.787020   3.366896  18.486307   5.800572  52.291626   0.005677  19.773821   0.018899   6.413625   3.020897   1.518523   4.280264  -7.207104  -5.212799   8.646985 -30.590082 -47.042145   0.002918 -22.013223   0.018137   9.276215  -0.014888  -3.902648  -5.670428  12.065433   1.529885  15.045864   0.001065   0.026378   2.082551   6.819104  -4.907716  -0.694043  -0.000097  -0.000730 -14.571968   4.313028   6.774403  77.673668  -0.046260  -0.026957   0.096096  -1.027035  -5.541678  -4.432655  -0.015724  -0.009677
 -2.829083   0.916347   4.968072 -16.316099 -57.214368  -5.392798   7.348459  -2.949273   0.929992   1.872259  -6.380020   2.445150   4.281615 -10.136166   4.521021   5.065155  -3.744995   3.437371  18.540565   6.062733  52.219098   0.005845  20.073279   0.020280   6.434213   2.909117   1.576283   4.391771  -6.992140  -5.226478   8.889290 -30.438861 -46.924079   0.003098 -22.362151   0.021334   9.316713  -0.079469  -3.925398  -5.187589  13.144176   1.382342  14.390739   0.000791   0.030404   2.484417   8.511032  -4.867086  -0.747435  -0.000004  -0.000618 -14.681694   3.895851   6.470563  77.654997  -0.036596  -0.021264  -0.303506  -0.620413  -5.180830  -4.250314  -0.017266  -0.010134
 -2.831344   0.917914   4.971773 -17.164132 -59.936785  -6.192887   7.315244  -2.930828   0.848220   1.894539  -6.392039   2.342919   4.474538 -10.070362   4.616726   5.107133  -3.700363   3.501538  18.579978   6.316782  52.152944   0.005853  20.362260   0.021439   6.453045   2.844017   1.641742   4.523676  -6.751964  -5.215272   9.145997 -30.269477 -46.799582   0.003180 -22.679939   0.023403   9.351051  -0.146332  -3.921087  -4.757715  14.201346   1.256578  13.742776   0.000602   0.034087   2.924013  10.161353  -4.812444  -0.843086   0.000167  -0.000438 -14.739854   3.443652   6.167810  77.570886  -0.027246  -0.015765  -0.682642  -0.238557  -4.837994  -4.090523  -0.018013  -0.010342
 -2.833595   0.919354   4.975331 -18.174249 -62.702100  -7.172229   7.274851  -2.906834   0.760066   1.910171  -6.391324   2.247585   4.652775 -10.009817   4.704729   5.143262  -3.657958   3.560718  18.614135   6.555898  52.092672   0.005725  20.634640   0.022222   6.469960   2.803898   1.705311   4.660733  -6.509555  -5.186490   9.402978 -30.096028 -46.672286   0.003161 -22.969168   0.024569   9.386161  -0.177961  -3.920055  -4.369338  15.192080   1.149648  13.116882   0.000535   0.037297   3.356582  11.714590  -4.758258  -0.941159   0.000337  -0.000115 -14.774591   3.003514   5.877631  77.480982  -0.019604  -0.011257  -1.039586   0.116177  -4.515289  -3.942949  -0.018278  -0.010407
 -2.835820   0.920655   4.978756 -19.412107 -65.487254  -8.391568   7.231872  -2.880541   0.670084   1.921500  -6.384473   2.157645   4.817568  -9.953561   4.785876   5.176539  -3.618988   3.614882  18.645950   6.778909  52.036129   0.005496  20.889343   0.022632   6.485694   2.772502   1.764502   4.795439  -6.273259  -5.148261   9.652487 -29.924650 -46.545395   0.003068 -23.234248   0.025071   9.421805  -0.180672  -3.920864  -4.014093  16.115233   1.058748  12.518020   0.000538   0.039912   3.766598  13.168951  -4.710183  -1.026915   0.000464   0.000257 -14.795517   2.587511   5.600881  77.398305  -0.013669  -0.007748  -1.375274   0.445187  -4.212282  -3.806811  -0.018149  -0.010337
 -2.838006   0.921818   4.982053 -20.969558 -68.276139  -9.941027   7.188468  -2.854582   0.581384   1.929959  -6.375420   2.072846   4.970338  -9.901091   4.861075   5.208022  -3.583649   3.664117  18.676440   6.986117  51.982245   0.005204  21.126737   0.022718   6.500596   2.742681   1.818249   4.924155  -6.047157  -5.105529   9.890484 -29.758806 -46.421355   0.002927 -23.478602   0.025094   9.457343  -0.164496  -3.920518  -3.687239  16.974935   0.982961  11.947188   0.000575   0.041918   4.148944  14.529255  -4.668364  -1.095862   0.000534   0.000590 -14.807886   2.198366   5.337259  77.324171  -0.009139  -0.005065  -1.690874   0.750200  -3.928093  -3.681448  -0.017716  -0.010151
 -2.840144   0.922851   4.985224 -22.988073 -71.055333 -11.961177   7.145771  -2.830491   0.495490   1.936327  -6.366391   1.993073   5.112249  -9.852070   4.931048   5.238105  -3.551782   3.708825  18.705939   7.178361  51.930648   0.004876  21.347693   0.022538   6.514839   2.711737   1.866462   5.045133  -5.833211  -5.061095  10.115072 -29.600355 -46.301571   0.002757 -23.704785   0.024776   9.492319  -0.136895  -3.917413  -3.385833  17.775737   0.922061  11.403858   0.000625   0.043358   4.502580  15.801340  -4.631729  -1.147630   0.000554   0.000830 -14.814988   1.836039   5.086200  77.257295  -0.005704  -0.003028  -1.987540   1.032948  -3.661742  -3.566165  -0.017064  -0.009872
 -2.842393   0.923542   4.988257 -25.965808 -74.010109 -14.893280   7.083871  -2.705344   0.372844   1.982909  -6.311810   1.863453   5.163477  -9.720876   4.995304   5.229505  -3.560046   3.780086  18.604765   7.452189  51.830113   0.004293  21.506165   0.021346   6.511511   2.551295   1.987566   5.204712  -5.530432  -5.070473  10.266097 -29.093014 -46.136945   0.002376 -23.946892   0.024151   9.510052  -0.336164  -3.836799  -3.180903  18.003667   0.952094  11.100356   0.001194   0.042190   4.627821  16.492531  -4.568833  -1.171589   0.000554   0.001110 -14.704338   1.671521   4.889149  77.151976  -0.001995  -0.000836  -2.454093   1.525837  -3.384079  -3.413699  -0.017536  -0.009931
